<svg width="25" height="25" viewBox="0 0 25 25" fill="none" xmlns="http://www.w3.org/2000/svg">
<g id="mdi:information-outline">
<path id="Vector" d="M12.4578 9.37492H14.5411V7.29159H12.4578V9.37492ZM13.4994 20.8333C8.90568 20.8333 5.1661 17.0937 5.1661 12.4999C5.1661 7.90617 8.90568 4.16659 13.4994 4.16659C18.0932 4.16659 21.8328 7.90617 21.8328 12.4999C21.8328 17.0937 18.0932 20.8333 13.4994 20.8333ZM13.4994 2.08325C12.1315 2.08325 10.777 2.35269 9.51314 2.87617C8.24934 3.39966 7.10101 4.16695 6.13373 5.13422C4.18023 7.08773 3.08276 9.73725 3.08276 12.4999C3.08276 15.2626 4.18023 17.9121 6.13373 19.8656C7.10101 20.8329 8.24934 21.6002 9.51314 22.1237C10.777 22.6472 12.1315 22.9166 13.4994 22.9166C16.2621 22.9166 18.9116 21.8191 20.8651 19.8656C22.8186 17.9121 23.9161 15.2626 23.9161 12.4999C23.9161 11.132 23.6467 9.77744 23.1232 8.51363C22.5997 7.24982 21.8324 6.1015 20.8651 5.13422C19.8979 4.16695 18.7495 3.39966 17.4857 2.87617C16.2219 2.35269 14.8674 2.08325 13.4994 2.08325ZM12.4578 17.7083H14.5411V11.4583H12.4578V17.7083Z" fill="#8477C9"/>
</g>
</svg>
